<svg viewBox="0 0 38 38">
  <path fill="#fff" d="M30.082,26.126 C30.957,26.126 31.666,25.417 31.666,24.542 C31.666,23.668 30.957,22.959 30.082,22.959 C29.208,22.959 28.499,23.668 28.499,24.542 C28.499,25.416 29.208,26.126 30.082,26.126 ZM34.832,17.417 L34.832,11.085 L28.500,11.083 L28.500,-0.000 L-0.000,10.292 L-0.000,38.000 L34.832,38.000 L34.832,31.667 L37.999,31.667 L38.000,17.417 L34.832,17.417 ZM25.333,4.750 L25.333,11.083 L7.125,11.083 L25.333,4.750 ZM31.666,34.833 L3.167,34.833 L3.167,14.251 L31.666,14.251 L31.666,17.417 L22.167,17.417 L22.167,31.667 L31.666,31.667 L31.666,34.833 ZM34.833,28.501 L25.332,28.501 L25.332,20.584 L34.833,20.584 L34.833,28.501 Z"/>
</svg>
