<svg viewBox="0 0 38 30">
  <path fill="#fff" d="M20.005,14.444 C19.673,14.391 19.339,14.355 19.005,14.355 C16.817,14.355 14.631,15.343 13.457,17.368 C11.709,20.389 12.804,24.395 15.833,26.139 C16.831,26.713 17.926,26.842 19.000,26.842 C21.188,26.842 23.369,25.710 24.542,23.684 C25.865,21.398 25.532,18.774 24.007,16.807 L26.125,8.684 L20.005,14.444 ZM21.742,22.249 C21.178,23.223 20.130,23.684 19.000,23.684 C18.442,23.684 17.906,23.686 17.417,23.404 C15.905,22.534 15.386,20.599 16.258,19.092 C16.822,18.118 17.875,17.512 19.006,17.512 C19.564,17.512 20.094,17.655 20.582,17.936 C22.095,18.807 22.614,20.741 21.742,22.249 ZM19.000,-0.000 C8.506,-0.000 -0.000,9.026 -0.000,19.737 C-0.000,23.653 1.141,26.952 3.096,30.000 L11.083,30.000 L11.083,26.842 L4.750,26.842 C3.604,24.569 3.167,22.319 3.167,19.737 C3.167,10.825 10.269,3.158 19.000,3.158 C27.730,3.158 34.833,10.825 34.833,19.737 C34.833,22.319 34.395,24.569 33.250,26.842 L26.917,26.842 L26.917,30.000 L34.833,30.000 C36.789,26.952 38.000,23.653 38.000,19.737 C38.000,9.026 29.494,-0.000 19.000,-0.000 Z"/>
</svg>
