<svg viewBox="0 0 38 33">
  <path fill="#fff" d="M33.705,9.921 L33.705,-0.001 L30.637,-0.001 L30.637,9.761 C27.835,10.334 25.727,12.831 25.727,15.825 C25.727,18.819 27.836,21.316 30.637,21.888 L30.637,33.000 L33.705,33.000 L33.705,21.728 C36.194,20.939 38.000,18.595 38.000,15.825 C38.000,13.054 36.194,10.709 33.705,9.921 ZM31.863,18.918 C30.171,18.918 28.795,17.530 28.795,15.824 C28.795,14.118 30.171,12.730 31.863,12.730 C33.555,12.730 34.932,14.118 34.932,15.824 C34.932,17.530 33.555,18.918 31.863,18.918 ZM20.632,16.848 L20.632,-0.001 L17.564,-0.001 L17.564,16.794 C14.864,17.443 12.855,19.885 12.855,22.806 C12.855,25.727 14.864,28.168 17.564,28.819 L17.564,33.000 L20.632,33.000 L20.632,28.763 C23.224,28.039 25.129,25.649 25.129,22.806 C25.129,19.962 23.223,17.573 20.632,16.848 ZM18.992,25.900 C17.300,25.900 15.923,24.512 15.923,22.806 C15.923,21.100 17.300,19.712 18.992,19.712 C20.683,19.712 22.060,21.100 22.060,22.806 C22.060,24.512 20.683,25.900 18.992,25.900 ZM7.559,3.821 L7.559,-0.001 L4.491,-0.001 L4.491,3.879 C1.902,4.604 -0.000,6.993 -0.000,9.834 C-0.000,12.676 1.902,15.064 4.491,15.790 L4.491,33.000 L7.559,33.000 L7.559,15.849 C10.261,15.201 12.274,12.758 12.274,9.835 C12.274,6.911 10.261,4.468 7.559,3.821 ZM6.137,12.928 C4.445,12.928 3.068,11.540 3.068,9.834 C3.068,8.128 4.444,6.740 6.137,6.740 C7.828,6.740 9.205,8.128 9.205,9.834 C9.205,11.540 7.828,12.928 6.137,12.928 Z"/>
</svg>
