<svg viewBox="0 0 38 30">
  <path fill="#fff" d="M20.729,24.419 L20.729,11.165 L17.966,11.165 L17.966,24.419 L13.821,20.931 L11.749,23.023 L19.347,29.999 L26.255,23.023 L24.182,20.931 L20.729,24.419 ZM31.227,9.694 C30.419,5.754 28.051,3.491 24.873,3.491 C23.961,3.491 22.884,3.706 21.880,4.086 C19.695,1.173 17.182,0.001 14.830,0.001 C10.116,0.001 6.043,4.707 6.522,9.537 C6.536,9.684 6.539,9.824 6.544,9.970 C3.468,10.651 -0.168,13.858 0.006,17.443 C0.179,21.028 2.604,25.085 6.498,25.085 L8.986,25.116 L8.986,22.326 L6.498,22.300 C4.052,22.300 2.858,19.287 2.769,17.443 C2.668,15.358 5.222,13.114 7.139,12.690 L9.386,12.192 L9.310,9.878 L9.308,9.820 C9.302,9.633 9.295,9.450 9.275,9.260 C9.121,7.702 9.722,6.001 10.885,4.708 C11.984,3.487 13.421,2.786 14.830,2.786 C17.768,2.786 19.543,5.592 20.917,7.424 L22.853,6.693 C25.886,5.547 27.854,7.023 28.517,10.256 L29.018,12.559 L31.090,12.559 C32.945,12.559 35.298,14.336 35.235,16.745 C35.162,19.483 32.633,22.299 30.243,22.299 L29.018,22.325 L29.018,25.115 L30.243,25.084 C34.340,25.084 37.891,20.762 37.998,16.745 C38.103,12.727 34.598,9.694 31.227,9.694 Z"/>
</svg>
