<svg viewBox="0 0 38 25">
  <path fill="#fff" d="M19.000,-0.000 C8.753,-0.000 -0.000,12.500 -0.000,12.500 C-0.000,12.500 8.746,25.000 19.000,25.000 C29.247,25.000 38.000,12.500 38.000,12.500 C38.000,12.500 29.254,-0.000 19.000,-0.000 ZM19.000,21.875 C13.087,21.875 7.017,16.153 3.958,12.500 C7.009,8.845 13.064,3.125 19.000,3.125 C24.913,3.125 30.983,8.847 34.042,12.500 C30.991,16.155 24.936,21.875 19.000,21.875 ZM19.000,6.250 C15.502,6.250 12.667,9.048 12.667,12.500 C12.667,15.952 15.502,18.750 19.000,18.750 C22.498,18.750 25.333,15.952 25.333,12.500 C25.333,9.048 22.498,6.250 19.000,6.250 ZM19.000,15.625 C17.060,15.625 15.833,14.415 15.833,12.500 C15.833,10.585 17.060,9.375 19.000,9.375 C20.940,9.375 22.167,10.585 22.167,12.500 C22.167,14.415 20.940,15.625 19.000,15.625 Z"/>
</svg>
